<?xml version="1.0" encoding="UTF-8"?>
<svg id="Layer_2" data-name="Layer 2" xmlns="http://www.w3.org/2000/svg" viewBox="0 0 104.4 79.94">
  <defs>
    <style>
      .cls-1 {
        fill: #4b574d;
      }

      .cls-1, .cls-2 {
        stroke-width: 0px;
      }

      .cls-2 {
        fill: #dfe8c5;
      }

      .cls-3 {
        fill: #99a57d;
        stroke: #4b574d;
        stroke-miterlimit: 10;
      }
    </style>
  </defs>
  <g id="Layer_2-2" data-name="Layer 2">
    <g>
      <path class="cls-3" d="M77.95,64.04s7.52,2.41,10.7,4.27c2.67,1.56,4.52,4.32,4.52,4.32l-4.17-.54,2.01,3.49-5.45-1.52,1.37,3.63-4.57-2.65s-17.57-14.49-4.42-11Z"/>
      <path class="cls-3" d="M52.35,65.15s-7.52,2.41-10.7,4.27c-2.67,1.56-4.52,4.32-4.52,4.32l4.17-.54-2.01,3.49,5.45-1.52-1.37,3.63,4.57-2.65s17.57-14.49,4.42-11Z"/>
      <path class="cls-1" d="M51.97,53.01c-9.89,1.94-29.62,2.41-26.21-12.85,0,0,.4-2.44.4-2.44.47-4.08,2.6-10.12.02-13.47-1.84-2.37-4.88-4.03-7.55-5.43-5.66-2.89-12.75-2.85-18.64,0,6.34-3.85,14.87-3.91,21.51-.26,3.41,1.71,7.32,4.05,8.07,8.2.39,2.14.2,4.42.01,6.47-.17,1.6-.63,5.77-.78,7.32-.25,1.95-.35,4.42.86,5.94,4.27,5.01,15.34,2.92,21.17,1.64,0,0,1.12,4.87,1.12,4.87h0Z"/>
      <circle class="cls-3" cx="64.79" cy="48.81" r="22.9"/>
      <circle class="cls-3" cx="75.55" cy="10.33" r="9.83"/>
      <circle class="cls-3" cx="67.18" cy="23.33" r="12.86"/>
      <circle class="cls-2" cx="65.87" cy="19.52" r="2.13"/>
      <circle class="cls-1" cx="73.77" cy="25.08" r="2.13"/>
      <polygon class="cls-2" points="69.06 34.65 70.51 34.65 74.23 28.87 69.06 28.87 69.06 34.65"/>
      <circle class="cls-3" cx="51.73" cy="13.12" r="9.83"/>
      <circle class="cls-2" cx="51.16" cy="13.51" r="8.07"/>
      <circle class="cls-2" cx="73.77" cy="19.52" r="1.77"/>
      <path class="cls-3" d="M79.97,35.7s8.19-1.25,9.43-3.73l2.79-5.59.93,3.71,4.81-3-1.24,5.34,5.28-1.39-6.36,4.66s-6.98,7.75-12.26,6.67"/>
      <path class="cls-3" d="M53.11,41.97c-2.39.59-5.68,2.5-6.59,4.97-.35.95-.25,5.76.59,6.48l-2.99-2.58-2.29,5.39-2.12-5.25-3.63,4.31,2.61-7.71c.84-2.48.62-5.53,2.06-7.82,1.81-2.9,6.44-4.34,9.64-4.33"/>
    </g>
  </g>
</svg>